<svg width="80" height="32" viewBox="0 0 80 32" fill="none" xmlns="http://www.w3.org/2000/svg">
<path fill-rule="evenodd" clip-rule="evenodd" d="M4 1H76C77.6569 1 79 2.34315 79 4V28C79 29.6569 77.6569 31 76 31H4C2.34315 31 1 29.6569 1 28V20H0V28C0 30.2091 1.79086 32 4 32H76C78.2091 32 80 30.2091 80 28V4C80 1.79086 78.2091 0 76 0H4C1.79086 0 0 1.79086 0 4V12H1V4C1 2.34315 2.34315 1 4 1Z" fill="white"/>
<path d="M0 17V15H10L8 12L10 11L13.5 16L10 21L8 20L10 17H0Z" fill="white"/>
<path d="M24.6908 20V11.6H28.3028C29.2148 11.6 29.9308 11.784 30.4508 12.152C30.9708 12.52 31.2308 13.056 31.2308 13.76C31.2308 14.448 30.9828 14.976 30.4868 15.344C29.9908 15.704 29.3388 15.884 28.5308 15.884L28.7468 15.524C29.6828 15.524 30.3988 15.712 30.8948 16.088C31.3988 16.456 31.6508 16.996 31.6508 17.708C31.6508 18.428 31.3868 18.992 30.8588 19.4C30.3388 19.8 29.5628 20 28.5308 20H24.6908ZM25.8788 19.052H28.5068C29.1468 19.052 29.6268 18.936 29.9468 18.704C30.2748 18.464 30.4388 18.1 30.4388 17.612C30.4388 17.124 30.2748 16.768 29.9468 16.544C29.6268 16.32 29.1468 16.208 28.5068 16.208H25.8788V19.052ZM25.8788 15.296H28.2188C28.8028 15.296 29.2468 15.18 29.5508 14.948C29.8628 14.716 30.0188 14.376 30.0188 13.928C30.0188 13.472 29.8628 13.128 29.5508 12.896C29.2468 12.664 28.8028 12.548 28.2188 12.548H25.8788V15.296ZM36.1877 20.072C35.5477 20.072 34.9797 19.932 34.4837 19.652C33.9877 19.372 33.5957 18.988 33.3077 18.5C33.0197 18.004 32.8757 17.444 32.8757 16.82C32.8757 16.188 33.0197 15.628 33.3077 15.14C33.5957 14.652 33.9877 14.272 34.4837 14C34.9797 13.72 35.5477 13.58 36.1877 13.58C36.8197 13.58 37.3837 13.72 37.8797 14C38.3837 14.272 38.7757 14.652 39.0557 15.14C39.3437 15.62 39.4877 16.18 39.4877 16.82C39.4877 17.452 39.3437 18.012 39.0557 18.5C38.7757 18.988 38.3837 19.372 37.8797 19.652C37.3837 19.932 36.8197 20.072 36.1877 20.072ZM36.1877 19.064C36.5957 19.064 36.9597 18.972 37.2797 18.788C37.6077 18.604 37.8637 18.344 38.0477 18.008C38.2317 17.664 38.3237 17.268 38.3237 16.82C38.3237 16.364 38.2317 15.972 38.0477 15.644C37.8637 15.308 37.6077 15.048 37.2797 14.864C36.9597 14.68 36.5957 14.588 36.1877 14.588C35.7797 14.588 35.4157 14.68 35.0957 14.864C34.7757 15.048 34.5197 15.308 34.3277 15.644C34.1357 15.972 34.0397 16.364 34.0397 16.82C34.0397 17.268 34.1357 17.664 34.3277 18.008C34.5197 18.344 34.7757 18.604 35.0957 18.788C35.4157 18.972 35.7797 19.064 36.1877 19.064ZM41.1512 20V13.64H42.3032V18.272L46.2032 13.64H47.2472V20H46.0952V15.368L42.2072 20H41.1512ZM44.1272 12.812C43.5432 12.812 43.0832 12.672 42.7472 12.392C42.4192 12.104 42.2512 11.692 42.2432 11.156H43.0232C43.0312 11.46 43.1312 11.7 43.3232 11.876C43.5232 12.052 43.7872 12.14 44.1152 12.14C44.4432 12.14 44.7072 12.052 44.9072 11.876C45.1072 11.7 45.2112 11.46 45.2192 11.156H46.0232C46.0152 11.692 45.8432 12.104 45.5072 12.392C45.1712 12.672 44.7112 12.812 44.1272 12.812ZM50.7432 20V14.348L51.0312 14.648H48.4152V13.64H54.2232V14.648H51.6192L51.8952 14.348V20H50.7432ZM55.4012 20V13.64H56.5532V18.272L60.4532 13.64H61.4972V20H60.3452V15.368L56.4572 20H55.4012Z" fill="white"/>
</svg>
