<svg width="92" height="20" viewBox="0 0 92 20" fill="none" xmlns="http://www.w3.org/2000/svg">
<path d="M15.8333 2.5H4.16667C3.24167 2.5 2.5 3.24167 2.5 4.16667V15.8333C2.5 16.75 3.25 17.5 4.16667 17.5H15.8333C16.75 17.5 17.5 16.75 17.5 15.8333V4.16667C17.5 3.24167 16.75 2.5 15.8333 2.5ZM7.5 15H5V13.3333H7.5V15ZM7.5 12.5H5V10.8333H7.5V12.5ZM7.5 10H5V8.33333H7.5V10ZM10.8333 15H8.33333V13.3333H10.8333V15ZM10.8333 12.5H8.33333V10.8333H10.8333V12.5ZM10.8333 10H8.33333V8.33333H10.8333V10Z" fill="#9B51E0"/>
<path d="M36.9167 14.1667H35.6667L34 7.91667L32.3333 14.1667H31.0833L29.0833 5.83333H30.5L31.7833 12.0833L33.4167 5.83333H34.5833L36.225 12.0833L37.5 5.83333H38.9167L36.9167 14.1667ZM39.8333 2.5H28.1667C27.2417 2.5 26.5 3.24167 26.5 4.16667V15.8333C26.5 16.2754 26.6756 16.6993 26.9882 17.0118C27.3007 17.3244 27.7246 17.5 28.1667 17.5H39.8333C40.2754 17.5 40.6993 17.3244 41.0118 17.0118C41.3244 16.6993 41.5 16.2754 41.5 15.8333V4.16667C41.5 3.24167 40.75 2.5 39.8333 2.5Z" fill="#185ABC"/>
<path d="M63.8333 2.5C64.2754 2.5 64.6993 2.67559 65.0118 2.98816C65.3244 3.30072 65.5 3.72464 65.5 4.16667V15.8333C65.5 16.2754 65.3244 16.6993 65.0118 17.0118C64.6993 17.3244 64.2754 17.5 63.8333 17.5H52.1667C51.2417 17.5 50.5 16.75 50.5 15.8333V4.16667C50.5 3.24167 51.2417 2.5 52.1667 2.5H63.8333ZM56.825 8.4C56.8083 8.44167 56.5833 9.86667 55.0833 12.3083C55.0833 12.3083 52.1667 13.8167 52.8583 14.95C53.4167 15.8333 54.7917 14.9167 55.9667 12.725C55.9667 12.725 57.4833 12.1917 59.4917 12.0417C59.4917 12.0417 62.7083 13.4917 63.1417 11.95C63.575 10.4167 60.6 10.75 60.0833 10.9083C60.0833 10.9083 58.3833 9.79167 58 8.24167C58 8.24167 58.9417 4.95833 57.4833 5C56.025 5.04167 56.575 7.6 56.825 8.4ZM57.5 9.275C57.525 9.275 57.8917 10.275 59.075 11.3167C59.075 11.3167 57.1333 11.7 56.25 12.0833C56.25 12.0833 57.0833 10.625 57.5 9.275ZM60.7667 11.5333C61.25 11.4083 62.7 11.6667 62.65 11.9333C62.5833 12.2083 60.7667 11.5333 60.7667 11.5333ZM54.8833 13.0833C54.4417 14.0917 53.6917 14.7333 53.5 14.725C53.3083 14.7167 54.0833 13.3917 54.8833 13.0833ZM57.5 7.3C57.4917 7.25833 57.1917 5.475 57.5 5.50833C57.95 5.55833 57.5 7.25833 57.5 7.3Z" fill="#B90605"/>
<path d="M85.5 14.1667H83.8333L82 11L80.1667 14.1667H78.5L81.1667 10L78.5 5.83333H80.1667L82 9L83.8333 5.83333H85.5L82.8333 10L85.5 14.1667ZM87.8333 2.5H76.1667C75.2417 2.5 74.5 3.24167 74.5 4.16667V15.8333C74.5 16.2754 74.6756 16.6993 74.9882 17.0118C75.3007 17.3244 75.7246 17.5 76.1667 17.5H87.8333C88.2754 17.5 88.6993 17.3244 89.0118 17.0118C89.3244 16.6993 89.5 16.2754 89.5 15.8333V4.16667C89.5 3.24167 88.75 2.5 87.8333 2.5Z" fill="#1F7244"/>
</svg>
