<svg width="33" height="32" viewBox="0 0 33 32" fill="none" xmlns="http://www.w3.org/2000/svg">
<g clip-path="url(#clip0_10407_448)">
<path fill-rule="evenodd" clip-rule="evenodd" d="M12.562 28.6646L13.0904 26.5177C11.2466 26.1053 9.5532 25.1902 8.19793 23.8738C6.84265 22.5575 5.87854 20.8915 5.41254 19.0605L3.3125 19.609C3.87267 21.8229 5.03241 23.8395 6.66423 25.4371C8.29605 27.0347 10.3368 28.1514 12.562 28.6646Z" fill="#B0D7E6"/>
<path fill-rule="evenodd" clip-rule="evenodd" d="M24.7607 19.9648C23.9269 22.3228 22.2626 24.2962 20.0791 25.5159L21.3699 28.1309C24.1991 26.5767 26.3615 24.0407 27.4493 21.0015L24.7607 19.9648Z" fill="#60A9C5"/>
<path fill-rule="evenodd" clip-rule="evenodd" d="M22.7074 30.1893L20.2128 25.4141C18.0027 26.6383 15.4176 27.0004 12.9563 26.4306L11.6187 31.4734C15.3426 32.4864 19.3135 32.0265 22.7074 30.1893Z" fill="#8FC4D9"/>
<path fill-rule="evenodd" clip-rule="evenodd" d="M25.3819 16.4458C25.3831 17.7941 25.1218 19.1298 24.6128 20.3784L29.4549 22.4985C30.5347 19.7035 30.7468 16.6479 30.0635 13.7305L25.2415 14.6267C25.3411 15.2278 25.3881 15.8365 25.3819 16.4458Z" fill="#318EB4"/>
<path fill-rule="evenodd" clip-rule="evenodd" d="M5.07077 16.4451C5.07199 14.9461 5.39829 13.4652 6.02715 12.1045L1.37898 10.0312C-0.191378 13.5287 -0.429235 17.4795 0.710174 21.1401L5.5523 19.5951C5.23133 18.576 5.06892 17.5136 5.07077 16.4451Z" fill="#8FC4D9"/>
<path fill-rule="evenodd" clip-rule="evenodd" d="M2.67676 10.6618L6.02077 12.1465C6.62148 10.8117 7.50209 9.62172 8.60292 8.65705C9.70375 7.69238 10.9991 6.97561 12.4011 6.55531L11.2776 3.05078C9.3832 3.63086 7.63525 4.61039 6.15158 5.92332C4.6679 7.23625 3.48299 8.85205 2.67676 10.6618Z" fill="#60A9C5"/>
<path fill-rule="evenodd" clip-rule="evenodd" d="M10.0869 2.00645L11.886 6.74826C13.1232 6.30503 14.4361 6.11225 15.7485 6.18114C17.0609 6.25003 18.3464 6.57921 19.5304 7.14954L21.6371 2.19372C17.9576 0.633125 13.8151 0.565962 10.0869 2.00645Z" fill="#318EB4"/>
<path fill-rule="evenodd" clip-rule="evenodd" d="M22.1115 0L19.3159 7.02243C20.8583 7.71871 22.205 8.78504 23.2364 10.1267C24.2677 11.4685 24.9519 13.044 25.2281 14.7137L32.9996 13.3359C32.4441 10.3801 31.1564 7.61072 29.2543 5.28101C27.3522 2.95131 24.8964 1.13562 22.1115 0V0Z" fill="#0C74A4"/>
<path fill-rule="evenodd" clip-rule="evenodd" d="M19.6573 20.1831C19.3028 19.1933 19.1022 18.8054 18.7879 17.9493C18.4735 17.0932 18.1592 16.2639 17.8582 15.4881C17.5573 14.7123 17.2496 13.9699 16.9553 13.261C16.6611 12.5521 16.34 11.8565 16.019 11.161C15.9688 11.0388 15.8836 10.9343 15.7741 10.8605C15.6646 10.7867 15.5358 10.747 15.4037 10.7463C15.2491 10.7425 15.098 10.7924 14.976 10.8875C14.8541 10.9827 14.7689 11.1171 14.7349 11.268C14.4273 11.9278 14.1308 12.5966 13.8454 13.2744C13.5601 13.9521 13.2591 14.6945 12.9425 15.5015C12.6483 16.2684 12.3361 17.0843 12.0062 17.9493C11.6919 18.8121 11.5447 19.2869 11.1903 20.27C11.1435 20.3612 11.1184 20.4619 11.1167 20.5643C11.1167 20.7417 11.1872 20.9118 11.3126 21.0372C11.438 21.1627 11.6081 21.2331 11.7855 21.2331C11.9107 21.2291 12.0323 21.1899 12.1363 21.1202C12.2404 21.0504 12.3227 20.9528 12.374 20.8385L13.2234 18.3038H17.4971L17.9184 19.5344C18.0522 19.9356 18.1993 20.3637 18.3531 20.7783C18.406 20.912 18.4983 21.0265 18.6178 21.1065C18.7372 21.1866 18.8782 21.2284 19.0219 21.2264C19.2123 21.2229 19.3937 21.1443 19.5264 21.0078C19.6592 20.8713 19.7327 20.6879 19.7309 20.4974C19.7299 20.3885 19.7048 20.2811 19.6573 20.1831ZM13.6381 17.2069C13.919 16.4044 14.2021 15.6263 14.4875 14.8728C14.7728 14.1193 15.0604 13.397 15.3502 12.7059C15.6579 13.4014 15.9544 14.126 16.2397 14.8795C16.5251 15.633 16.8127 16.4111 17.1025 17.2136L13.6381 17.2069Z" fill="#EF4744"/>
</g>
<defs>
<clipPath id="clip0_10407_448">
<rect width="33" height="32" fill="white"/>
</clipPath>
</defs>
</svg>
